<svg data-v-fde0c5aa="" xmlns="http://www.w3.org/2000/svg" viewBox="0 0 300 300" class="iconLeft"><!----><defs data-v-fde0c5aa=""><!----></defs><rect data-v-fde0c5aa="" fill="transparent" x="0" y="0" width="300px" height="300px" class="logo-background-square"></rect><defs data-v-fde0c5aa=""><!----></defs><g data-v-fde0c5aa="" id="66508e24-81e4-4b0b-9870-75df256b6073" fill="#2e3034" transform="matrix(2.0990422083583113,0,0,2.0990422083583113,146.73568485916672,128.9675390600091)"><path d="M1.68 13.55L6.62 13.55L6.62 12.98L2.27 12.98L2.27 3.77L1.68 3.77ZM7.83 11.42C7.83 12.66 8.79 13.57 10.23 13.57C11.49 13.57 12.53 13.12 13.15 12.11L13.16 13.55L13.73 13.55L13.71 8.71C13.69 7.20 12.75 6.24 11.03 6.24C9.93 6.24 9.09 6.65 8.22 7.28L8.50 7.73C9.27 7.14 10.04 6.78 10.95 6.78C12.40 6.78 13.12 7.52 13.13 8.75L13.13 9.46L10.54 9.46C8.86 9.46 7.83 10.21 7.83 11.42ZM8.39 11.41C8.39 10.47 9.17 9.98 10.60 9.98L13.15 9.98L13.15 11.17C12.70 12.45 11.68 13.03 10.32 13.03C9.13 13.03 8.39 12.38 8.39 11.41ZM16.41 13.55L17.00 13.55L17.00 9.60C17.12 7.91 18.10 6.85 19.71 6.85L19.71 6.24C18.41 6.27 17.46 6.92 17.00 8.09L17.00 6.26L16.41 6.26ZM20.66 11.42C20.66 12.66 21.63 13.57 23.07 13.57C24.33 13.57 25.37 13.12 25.98 12.11L26.00 13.55L26.57 13.55L26.54 8.71C26.53 7.20 25.59 6.24 23.87 6.24C22.76 6.24 21.92 6.65 21.06 7.28L21.34 7.73C22.11 7.14 22.88 6.78 23.79 6.78C25.24 6.78 25.96 7.52 25.97 8.75L25.97 9.46L23.38 9.46C21.70 9.46 20.66 10.21 20.66 11.42ZM21.22 11.41C21.22 10.47 22.01 9.98 23.44 9.98L25.98 9.98L25.98 11.17C25.54 12.45 24.51 13.03 23.16 13.03C21.97 13.03 21.22 12.38 21.22 11.41ZM29.47 13.55L30.06 13.55L30.06 3.77L29.47 3.77ZM33.19 13.55L33.77 13.55L33.77 9.98C33.77 8.08 34.80 6.87 36.55 6.83C38.01 6.83 38.89 7.71 38.89 9.21L38.89 13.55L39.47 13.55L39.47 9.98C39.47 8.08 40.49 6.87 42.24 6.83C43.71 6.83 44.58 7.71 44.58 9.21L44.58 13.55L45.15 13.55L45.15 9.10C45.15 7.32 44.13 6.24 42.38 6.24C40.88 6.27 39.84 7.00 39.40 8.36C39.14 7.03 38.18 6.24 36.71 6.24C35.27 6.27 34.24 6.93 33.77 8.18L33.77 6.26L33.19 6.26ZM47.04 9.76C47.04 11.79 48.45 13.26 50.41 13.26C51.80 13.26 52.89 12.54 53.40 11.38L53.40 12.75C53.40 14.57 52.22 15.74 50.41 15.72C49.36 15.69 48.54 15.36 47.78 14.64L47.47 15.08C48.33 15.85 49.27 16.24 50.43 16.27C52.57 16.28 53.96 14.91 53.96 12.75L53.96 6.26L53.40 6.26L53.40 8.13C52.88 6.97 51.80 6.24 50.40 6.24C48.45 6.24 47.04 7.71 47.04 9.76ZM47.59 9.77C47.59 8.04 48.80 6.78 50.48 6.78C52.16 6.78 53.40 8.04 53.40 9.77C53.40 11.49 52.16 12.75 50.48 12.75C48.79 12.75 47.59 11.49 47.59 9.77Z"></path></g><defs data-v-fde0c5aa=""><!----></defs><g data-v-fde0c5aa="" id="dba03622-217e-4448-840c-552db3aae3ed" stroke="none" fill="#488eff" transform="matrix(1.1309543710387775,0,0,1.1309543710387775,32.083319402728556,93.45228144806114)"><switch><g><path d="M9.2 67l-.2-.1h-.6c0-.3 0-.5 5.5-4.9.3-.2.5-.4.6-.5l1.7-1.7c3-2.9 4.5-4.4 4.9-4.6 1.3-.6 2-1.1 2.2-1.4.3-.6 2.9-2.2 3.9-2.8.6-.5 1.4-.6 2.1-.2l2.9 1.4c.2.1 1.8.5 2.3 1 .3.3 1.6.8 2.3 1l-.3.8c-.3-.1-2.1-.7-2.6-1.2-.3-.2-1.3-.6-2-.8l-3-1.4c-.4-.2-.9-.1-1.3.2-1.6 1-3.5 2.2-3.7 2.5-.3.7-1.5 1.3-2.5 1.8-.4.2-3.2 3-4.7 4.5-1.1 1-1.6 1.6-1.8 1.7-.1.1-.3.2-.6.5-3.1 2.4-4.8 3.9-5.1 4.2z"></path><path d="M88 67.2c-5.1-5.3-9.8-7.3-11.7-7.3-.6 0-1.4.2-2.1.5-1.5.5-3.1 1-4.2-.3-1.3-1.6-3.6-2.9-4.6-3.4-1-.5-1.8-2-1.3-3.5.4-1.2.4-3.5 0-4.9-.4-1.4-3.6-5.8-4.6-6.4-.8-.5-1.9-2.5-3.2-4.8-.4-.7-.8-1.4-.9-1.5-.3-.3-1.7-.8-2.7-.7-.4 0-.4.1-.6.3-.2.2-.4.6-.9.9-2.2 1.4-1.4 2.9-1 3.9.4.8 0 1.9-.6 2.6-.8 1-1.9 1.6-2.8 1.4-.9-.2-1.7-.1-2.1.3-.3.2-.4.5-.5.8-.2 1.1-.7 3.3-1.5 4.4-.7 1-10.6 10.8-11.1 11.2l-.8-.7c3.6-3.5 10.4-10.4 11-11.2.7-.9 1.2-2.9 1.4-4 .1-.6.4-1 .8-1.4.7-.5 1.6-.6 2.8-.4 1 .2 1.8-.8 2-1.1.5-.7.7-1.4.6-1.6-.5-1-1.6-3.2 1.2-5 .4-.3.6-.5.7-.7.3-.4.5-.7 1.3-.7 1.1 0 2.8.5 3.3 1 .2.2.4.6 1 1.7.8 1.4 2.3 4.1 2.9 4.5 1.2.7 4.5 5.3 5 6.9.5 1.6.5 4.1 0 5.5-.4 1 .1 2.1.8 2.4.1.1 3.1 1.5 4.9 3.6.7.8 1.7.6 3.3 0 .8-.3 1.7-.5 2.4-.5 1.8 0 6.6 1.7 12.3 7.6l-.5.6z"></path><path d="M48.5 62.6l-.7-.5c.1-.1 6.2-7.7 6.3-10.8.1-2.5 1.2-5.3 2-7.3.3-.6.5-1.2.6-1.6.4-1.1-.3-2-.7-2.5-.1-.2-.2-.3-.3-.4l-.1-.3c-.2-.4-.5-1-.9-2.1-.4-.9-1.8-2.1-2.3-2.4l.5-.7c.1.1 2 1.4 2.6 2.8.4 1 .7 1.6.9 2l.1.3s.1.2.2.3c.5.6 1.4 1.7.9 3.3-.1.4-.4 1-.6 1.6-.8 1.9-1.9 4.6-1.9 7-.2 3.4-6.3 11-6.6 11.3z"></path><path d="M65.6 67l-.9-.1c.3-2.3-1-4.2-2.3-6.2-.7-1-1.4-2.1-1.9-3.2-1.5-3.2-5.8-5.3-5.9-5.3l.4-.8c.2.1 4.7 2.2 6.3 5.8.5 1.1 1.2 2.1 1.8 3.1 1.5 2 2.8 4 2.5 6.7zM52.2 66.8c-.6-3.6-3.3-4.1-4.2-4-.9.1-2.2-.6-3.8-2.3-.6-.5-1.2-1.2-1.5-1.5-.1-.1-.4-.2-1.6-.1-.6.1-3 2.4-4.9 4.6l-.7-.6c1-1.1 4.2-4.8 5.5-4.9 1.2-.1 2-.1 2.4.4.2.3.8 1 1.4 1.5 2 2 2.9 2.1 3.1 2 1.1-.1 4.5.4 5.2 4.7l-.9.2z"></path><path d="M7 66.5h86v.9H7zM33.9 42.6c-2.8 0-5.1-2.2-5.1-5s2.3-5 5.1-5 5.1 2.2 5.1 5c.1 2.8-2.2 5-5.1 5zm0-9.1c-2.3 0-4.3 1.9-4.3 4.1s1.9 4.1 4.3 4.1 4.3-1.9 4.3-4.1-1.9-4.1-4.3-4.1z"></path></g></switch></g><!----></svg>