<svg data-v-423bf9ae="" xmlns="http://www.w3.org/2000/svg" viewBox="0 0 495 90" class="iconLeft"><!----><!----><!----><g data-v-423bf9ae="" id="47e99f3f-712e-42cc-a703-c210a77b1066" fill="#000000" transform="matrix(4.329004138368367,0,0,4.329004138368367,236.35318222322843,8.939392759775025)"><path d="M7.99 11.58L7.99 11.58Q8.18 11.58 8.29 11.68L8.29 11.68L8.29 11.68Q8.41 11.79 8.41 11.96L8.41 11.96L8.41 11.96Q8.41 12.12 8.29 12.23L8.29 12.23L8.29 12.23Q8.18 12.33 7.99 12.33L7.99 12.33L1.82 12.33L1.82 12.33Q1.65 12.33 1.53 12.21L1.53 12.21L1.53 12.21Q1.40 12.10 1.40 11.91L1.40 11.91L1.40 1.82L1.40 1.82Q1.40 1.64 1.53 1.52L1.53 1.52L1.53 1.52Q1.65 1.40 1.82 1.40L1.82 1.40L1.82 1.40Q2.00 1.40 2.12 1.52L2.12 1.52L2.12 1.52Q2.24 1.64 2.24 1.82L2.24 1.82L2.24 11.58L7.99 11.58ZM13.52 4.59L13.52 4.59Q14.62 4.59 15.51 5.10L15.51 5.10L15.51 5.10Q16.41 5.61 16.92 6.51L16.92 6.51L16.92 6.51Q17.43 7.41 17.43 8.51L17.43 8.51L17.43 11.91L17.43 11.91Q17.43 12.10 17.32 12.21L17.32 12.21L17.32 12.21Q17.21 12.33 17.01 12.33L17.01 12.33L17.01 12.33Q16.83 12.33 16.71 12.21L16.71 12.21L16.71 12.21Q16.59 12.10 16.59 11.91L16.59 11.91L16.59 10.82L16.59 10.82Q16.13 11.56 15.32 11.99L15.32 11.99L15.32 11.99Q14.52 12.42 13.52 12.42L13.52 12.42L13.52 12.42Q12.42 12.42 11.52 11.91L11.52 11.91L11.52 11.91Q10.63 11.40 10.11 10.50L10.11 10.50L10.11 10.50Q9.60 9.60 9.60 8.51L9.60 8.51L9.60 8.51Q9.60 7.41 10.11 6.51L10.11 6.51L10.11 6.51Q10.63 5.61 11.52 5.10L11.52 5.10L11.52 5.10Q12.42 4.59 13.52 4.59L13.52 4.59ZM13.52 11.63L13.52 11.63Q14.39 11.63 15.09 11.23L15.09 11.23L15.09 11.23Q15.79 10.82 16.19 10.11L16.19 10.11L16.19 10.11Q16.59 9.39 16.59 8.51L16.59 8.51L16.59 8.51Q16.59 7.63 16.19 6.92L16.19 6.92L16.19 6.92Q15.79 6.20 15.09 5.79L15.09 5.79L15.09 5.79Q14.39 5.38 13.52 5.38L13.52 5.38L13.52 5.38Q12.66 5.38 11.96 5.79L11.96 5.79L11.96 5.79Q11.26 6.20 10.85 6.92L10.85 6.92L10.85 6.92Q10.44 7.63 10.44 8.51L10.44 8.51L10.44 8.51Q10.44 9.39 10.85 10.11L10.85 10.11L10.85 10.11Q11.26 10.82 11.96 11.23L11.96 11.23L11.96 11.23Q12.66 11.63 13.52 11.63L13.52 11.63ZM22.78 4.59L22.78 4.59Q23.84 4.59 23.84 5.05L23.84 5.05L23.84 5.05Q23.84 5.12 23.83 5.17L23.83 5.17L23.83 5.17Q23.79 5.32 23.70 5.38L23.70 5.38L23.70 5.38Q23.60 5.45 23.45 5.45L23.45 5.45L23.45 5.45Q23.32 5.45 23.12 5.42L23.12 5.42L23.12 5.42Q22.92 5.39 22.78 5.39L22.78 5.39L22.78 5.39Q22.08 5.39 21.53 5.68L21.53 5.68L21.53 5.68Q20.99 5.98 20.68 6.50L20.68 6.50L20.68 6.50Q20.37 7.01 20.37 7.66L20.37 7.66L20.37 11.91L20.37 11.91Q20.37 12.10 20.26 12.21L20.26 12.21L20.26 12.21Q20.15 12.33 19.95 12.33L19.95 12.33L19.95 12.33Q19.77 12.33 19.65 12.21L19.65 12.21L19.65 12.21Q19.53 12.10 19.53 11.91L19.53 11.91L19.53 5.10L19.53 5.10Q19.53 4.90 19.65 4.79L19.65 4.79L19.65 4.79Q19.77 4.68 19.95 4.68L19.95 4.68L19.95 4.68Q20.15 4.68 20.26 4.79L20.26 4.79L20.26 4.79Q20.37 4.90 20.37 5.10L20.37 5.10L20.37 5.96L20.37 5.96Q20.78 5.32 21.41 4.96L21.41 4.96L21.41 4.96Q22.04 4.59 22.78 4.59L22.78 4.59ZM29.16 4.59L29.16 4.59Q30.25 4.59 31.15 5.10L31.15 5.10L31.15 5.10Q32.05 5.61 32.56 6.51L32.56 6.51L32.56 6.51Q33.07 7.41 33.07 8.51L33.07 8.51L33.07 11.91L33.07 11.91Q33.07 12.10 32.96 12.21L32.96 12.21L32.96 12.21Q32.84 12.33 32.65 12.33L32.65 12.33L32.65 12.33Q32.47 12.33 32.35 12.21L32.35 12.21L32.35 12.21Q32.23 12.10 32.23 11.91L32.23 11.91L32.23 10.82L32.23 10.82Q31.77 11.56 30.96 11.99L30.96 11.99L30.96 11.99Q30.16 12.42 29.16 12.42L29.16 12.42L29.16 12.42Q28.06 12.42 27.16 11.91L27.16 11.91L27.16 11.91Q26.26 11.40 25.75 10.50L25.75 10.50L25.75 10.50Q25.24 9.60 25.24 8.51L25.24 8.51L25.24 8.51Q25.24 7.41 25.75 6.51L25.75 6.51L25.75 6.51Q26.26 5.61 27.16 5.10L27.16 5.10L27.16 5.10Q28.06 4.59 29.16 4.59L29.16 4.59ZM29.16 11.63L29.16 11.63Q30.03 11.63 30.73 11.23L30.73 11.23L30.73 11.23Q31.43 10.82 31.83 10.11L31.83 10.11L31.83 10.11Q32.23 9.39 32.23 8.51L32.23 8.51L32.23 8.51Q32.23 7.63 31.83 6.92L31.83 6.92L31.83 6.92Q31.43 6.20 30.73 5.79L30.73 5.79L30.73 5.79Q30.03 5.38 29.16 5.38L29.16 5.38L29.16 5.38Q28.29 5.38 27.59 5.79L27.59 5.79L27.59 5.79Q26.89 6.20 26.49 6.92L26.49 6.92L26.49 6.92Q26.08 7.63 26.08 8.51L26.08 8.51L26.08 8.51Q26.08 9.39 26.49 10.11L26.49 10.11L26.49 10.11Q26.89 10.82 27.59 11.23L27.59 11.23L27.59 11.23Q28.29 11.63 29.16 11.63L29.16 11.63ZM35.31 1.82L35.31 1.82Q35.31 1.64 35.43 1.52L35.43 1.52L35.43 1.52Q35.55 1.40 35.73 1.40L35.73 1.40L35.73 1.40Q35.91 1.40 36.03 1.52L36.03 1.52L36.03 1.52Q36.15 1.64 36.15 1.82L36.15 1.82L36.15 11.91L36.15 11.91Q36.15 12.10 36.03 12.21L36.03 12.21L36.03 12.21Q35.91 12.33 35.73 12.33L35.73 12.33L35.73 12.33Q35.55 12.33 35.43 12.21L35.43 12.21L35.43 12.21Q35.31 12.10 35.31 11.91L35.31 11.91L35.31 1.82ZM46.89 4.58L46.89 4.58Q47.73 4.58 48.38 5.00L48.38 5.00L48.38 5.00Q49.04 5.42 49.41 6.17L49.41 6.17L49.41 6.17Q49.77 6.92 49.77 7.87L49.77 7.87L49.77 11.91L49.77 11.91Q49.77 12.10 49.66 12.21L49.66 12.21L49.66 12.21Q49.55 12.33 49.35 12.33L49.35 12.33L49.35 12.33Q49.17 12.33 49.05 12.21L49.05 12.21L49.05 12.21Q48.93 12.10 48.93 11.91L48.93 11.91L48.93 7.87L48.93 7.87Q48.93 6.79 48.36 6.10L48.36 6.10L48.36 6.10Q47.78 5.42 46.89 5.42L46.89 5.42L46.89 5.42Q45.91 5.42 45.30 6.06L45.30 6.06L45.30 6.06Q44.70 6.71 44.73 7.77L44.73 7.77L44.73 7.87L44.73 11.91L44.73 11.91Q44.73 12.10 44.62 12.21L44.62 12.21L44.62 12.21Q44.51 12.33 44.31 12.33L44.31 12.33L44.31 12.33Q44.13 12.33 44.01 12.21L44.01 12.21L44.01 12.21Q43.89 12.10 43.89 11.91L43.89 11.91L43.89 7.87L43.89 7.87Q43.89 6.79 43.32 6.10L43.32 6.10L43.32 6.10Q42.74 5.42 41.85 5.42L41.85 5.42L41.85 5.42Q40.88 5.42 40.26 6.03L40.26 6.03L40.26 6.03Q39.65 6.65 39.65 7.63L39.65 7.63L39.65 11.91L39.65 11.91Q39.65 12.10 39.54 12.21L39.54 12.21L39.54 12.21Q39.42 12.33 39.23 12.33L39.23 12.33L39.23 12.33Q39.05 12.33 38.93 12.21L38.93 12.21L38.93 12.21Q38.81 12.10 38.81 11.91L38.81 11.91L38.81 5.10L38.81 5.10Q38.81 4.90 38.93 4.79L38.93 4.79L38.93 4.79Q39.05 4.68 39.23 4.68L39.23 4.68L39.23 4.68Q39.42 4.68 39.54 4.79L39.54 4.79L39.54 4.79Q39.65 4.90 39.65 5.10L39.65 5.10L39.65 5.64L39.65 5.64Q40.04 5.14 40.61 4.86L40.61 4.86L40.61 4.86Q41.19 4.58 41.85 4.58L41.85 4.58L41.85 4.58Q42.66 4.58 43.30 4.98L43.30 4.98L43.30 4.98Q43.95 5.38 44.32 6.08L44.32 6.08L44.32 6.08Q44.70 5.38 45.37 4.98L45.37 4.98L45.37 4.98Q46.05 4.58 46.89 4.58L46.89 4.58ZM55.65 4.59L55.65 4.59Q56.78 4.59 57.67 5.10L57.67 5.10L57.67 5.10Q58.56 5.60 59.06 6.49L59.06 6.49L59.06 6.49Q59.56 7.38 59.56 8.51L59.56 8.51L59.56 11.26L59.56 11.26Q59.56 12.38 59.05 13.29L59.05 13.29L59.05 13.29Q58.55 14.21 57.67 14.73L57.67 14.73L57.67 14.73Q56.78 15.26 55.71 15.26L55.71 15.26L55.71 15.26Q54.60 15.26 53.77 14.85L53.77 14.85L53.77 14.85Q52.93 14.43 52.37 13.72L52.37 13.72L52.37 13.72Q52.26 13.58 52.26 13.44L52.26 13.44L52.26 13.44Q52.26 13.27 52.40 13.17L52.40 13.17L52.40 13.17Q52.51 13.09 52.65 13.09L52.65 13.09L52.65 13.09Q52.88 13.09 53.02 13.27L53.02 13.27L53.02 13.27Q53.48 13.83 54.16 14.15L54.16 14.15L54.16 14.15Q54.84 14.48 55.71 14.48L55.71 14.48L55.71 14.48Q56.56 14.48 57.25 14.06L57.25 14.06L57.25 14.06Q57.93 13.64 58.32 12.90L58.32 12.90L58.32 12.90Q58.72 12.17 58.72 11.26L58.72 11.26L58.72 10.64L58.72 10.64Q58.31 11.47 57.51 11.94L57.51 11.94L57.51 11.94Q56.70 12.42 55.65 12.42L55.65 12.42L55.65 12.42Q54.52 12.42 53.63 11.92L53.63 11.92L53.63 11.92Q52.74 11.42 52.23 10.54L52.23 10.54L52.23 10.54Q51.73 9.65 51.73 8.51L51.73 8.51L51.73 8.51Q51.73 7.39 52.25 6.50L52.25 6.50L52.25 6.50Q52.77 5.60 53.66 5.10L53.66 5.10L53.66 5.10Q54.56 4.59 55.65 4.59L55.65 4.59ZM55.65 11.63L55.65 11.63Q56.53 11.63 57.23 11.23L57.23 11.23L57.23 11.23Q57.93 10.84 58.32 10.13L58.32 10.13L58.32 10.13Q58.72 9.42 58.72 8.51L58.72 8.51L58.72 8.51Q58.72 7.60 58.32 6.89L58.32 6.89L58.32 6.89Q57.93 6.17 57.23 5.77L57.23 5.77L57.23 5.77Q56.53 5.38 55.65 5.38L55.65 5.38L55.65 5.38Q54.75 5.38 54.05 5.77L54.05 5.77L54.05 5.77Q53.35 6.17 52.96 6.89L52.96 6.89L52.96 6.89Q52.57 7.60 52.57 8.51L52.57 8.51L52.57 8.51Q52.57 9.42 52.96 10.13L52.96 10.13L52.96 10.13Q53.35 10.84 54.05 11.23L54.05 11.23L54.05 11.23Q54.75 11.63 55.65 11.63L55.65 11.63Z"></path></g><defs data-v-423bf9ae=""><linearGradient data-v-423bf9ae="" gradientTransform="rotate(25)" id="0c3b988d-2207-4a30-bc1b-1c74645b0a40" x1="0%" y1="0%" x2="100%" y2="0%"><stop data-v-423bf9ae="" offset="0%" style="stop-color: rgb(233, 13, 218); stop-opacity: 1;"></stop><stop data-v-423bf9ae="" offset="100%" style="stop-color: rgb(21, 207, 241); stop-opacity: 1;"></stop></linearGradient></defs><g data-v-423bf9ae="" id="853d23fb-440e-4331-b3fd-6d9415c2eab4" transform="matrix(2.586206669756425,0,0,2.586206669756425,-17.310333487821254,-83.71033501370016)" stroke="none" fill="url(#0c3b988d-2207-4a30-bc1b-1c74645b0a40)"><switch><g><path d="M9.2 67l-.2-.1h-.6c0-.3 0-.5 5.5-4.9.3-.2.5-.4.6-.5l1.7-1.7c3-2.9 4.5-4.4 4.9-4.6 1.3-.6 2-1.1 2.2-1.4.3-.6 2.9-2.2 3.9-2.8.6-.5 1.4-.6 2.1-.2l2.9 1.4c.2.1 1.8.5 2.3 1 .3.3 1.6.8 2.3 1l-.3.8c-.3-.1-2.1-.7-2.6-1.2-.3-.2-1.3-.6-2-.8l-3-1.4c-.4-.2-.9-.1-1.3.2-1.6 1-3.5 2.2-3.7 2.5-.3.7-1.5 1.3-2.5 1.8-.4.2-3.2 3-4.7 4.5-1.1 1-1.6 1.6-1.8 1.7-.1.1-.3.2-.6.5-3.1 2.4-4.8 3.9-5.1 4.2z"></path><path d="M88 67.2c-5.1-5.3-9.8-7.3-11.7-7.3-.6 0-1.4.2-2.1.5-1.5.5-3.1 1-4.2-.3-1.3-1.6-3.6-2.9-4.6-3.4-1-.5-1.8-2-1.3-3.5.4-1.2.4-3.5 0-4.9-.4-1.4-3.6-5.8-4.6-6.4-.8-.5-1.9-2.5-3.2-4.8-.4-.7-.8-1.4-.9-1.5-.3-.3-1.7-.8-2.7-.7-.4 0-.4.1-.6.3-.2.2-.4.6-.9.9-2.2 1.4-1.4 2.9-1 3.9.4.8 0 1.9-.6 2.6-.8 1-1.9 1.6-2.8 1.4-.9-.2-1.7-.1-2.1.3-.3.2-.4.5-.5.8-.2 1.1-.7 3.3-1.5 4.4-.7 1-10.6 10.8-11.1 11.2l-.8-.7c3.6-3.5 10.4-10.4 11-11.2.7-.9 1.2-2.9 1.4-4 .1-.6.4-1 .8-1.4.7-.5 1.6-.6 2.8-.4 1 .2 1.8-.8 2-1.1.5-.7.7-1.4.6-1.6-.5-1-1.6-3.2 1.2-5 .4-.3.6-.5.7-.7.3-.4.5-.7 1.3-.7 1.1 0 2.8.5 3.3 1 .2.2.4.6 1 1.7.8 1.4 2.3 4.1 2.9 4.5 1.2.7 4.5 5.3 5 6.9.5 1.6.5 4.1 0 5.5-.4 1 .1 2.1.8 2.4.1.1 3.1 1.5 4.9 3.6.7.8 1.7.6 3.3 0 .8-.3 1.7-.5 2.4-.5 1.8 0 6.6 1.7 12.3 7.6l-.5.6z"></path><path d="M48.5 62.6l-.7-.5c.1-.1 6.2-7.7 6.3-10.8.1-2.5 1.2-5.3 2-7.3.3-.6.5-1.2.6-1.6.4-1.1-.3-2-.7-2.5-.1-.2-.2-.3-.3-.4l-.1-.3c-.2-.4-.5-1-.9-2.1-.4-.9-1.8-2.1-2.3-2.4l.5-.7c.1.1 2 1.4 2.6 2.8.4 1 .7 1.6.9 2l.1.3s.1.2.2.3c.5.6 1.4 1.7.9 3.3-.1.4-.4 1-.6 1.6-.8 1.9-1.9 4.6-1.9 7-.2 3.4-6.3 11-6.6 11.3z"></path><path d="M65.6 67l-.9-.1c.3-2.3-1-4.2-2.3-6.2-.7-1-1.4-2.1-1.9-3.2-1.5-3.2-5.8-5.3-5.9-5.3l.4-.8c.2.1 4.7 2.2 6.3 5.8.5 1.1 1.2 2.1 1.8 3.1 1.5 2 2.8 4 2.5 6.7zM52.2 66.8c-.6-3.6-3.3-4.1-4.2-4-.9.1-2.2-.6-3.8-2.3-.6-.5-1.2-1.2-1.5-1.5-.1-.1-.4-.2-1.6-.1-.6.1-3 2.4-4.9 4.6l-.7-.6c1-1.1 4.2-4.8 5.5-4.9 1.2-.1 2-.1 2.4.4.2.3.8 1 1.4 1.5 2 2 2.9 2.1 3.1 2 1.1-.1 4.5.4 5.2 4.7l-.9.2z"></path><path d="M7 66.5h86v.9H7zM33.9 42.6c-2.8 0-5.1-2.2-5.1-5s2.3-5 5.1-5 5.1 2.2 5.1 5c.1 2.8-2.2 5-5.1 5zm0-9.1c-2.3 0-4.3 1.9-4.3 4.1s1.9 4.1 4.3 4.1 4.3-1.9 4.3-4.1-1.9-4.1-4.3-4.1z"></path></g></switch></g><!----></svg>