<svg data-v-423bf9ae="" xmlns="http://www.w3.org/2000/svg" viewBox="0 0 249 90" class="iconLeft"><!----><!----><!----><g data-v-423bf9ae="" id="5f151023-e3fe-43ec-8e2b-8c4e9ee47311" fill="black" transform="matrix(4.583651922987115,0,0,4.583651922987115,119.1581735806416,-9.247518020912231)"><path d="M1.90 5.60C1.90 5.40 1.82 5.29 1.67 5.29C1.54 5.29 1.47 5.35 1.41 5.40C1.47 5.63 1.50 6.06 1.50 6.62L1.53 14.71C1.53 14.91 1.61 15.02 1.76 15.02L5.78 15.02C5.95 15.02 5.92 14.71 5.78 14.66C4.49 14.66 3.22 14.67 1.93 14.67ZM8.06 6.34C8.32 6.34 8.54 6.12 8.54 5.87C8.54 5.61 8.32 5.39 8.06 5.39C7.81 5.39 7.59 5.61 7.59 5.87C7.59 6.12 7.81 6.34 8.06 6.34ZM8.33 13.80L8.30 8.16C8.30 7.97 8.22 7.85 8.06 7.85C7.94 7.85 7.87 7.91 7.81 7.97C7.87 8.19 7.90 8.62 7.90 9.18L7.92 14.83C7.92 15.02 8.01 15.13 8.16 15.13C8.29 15.13 8.36 15.08 8.41 15.02C8.36 14.80 8.33 14.36 8.33 13.80ZM20.82 13.80L20.80 10.86C20.80 8.90 20.17 7.85 18.68 7.85C17.61 7.85 16.66 8.60 16.32 9.80C16.13 8.55 15.47 7.85 14.25 7.85C13.26 7.85 12.35 8.55 11.96 9.76L11.96 9.04C11.96 8.29 11.56 7.88 10.98 7.88C10.70 7.88 10.36 8.05 10.36 8.36C10.36 8.44 10.39 8.54 10.49 8.65C10.57 8.41 10.75 8.27 10.96 8.27C11.34 8.27 11.54 8.55 11.54 9.02L11.55 14.83C11.55 15.02 11.63 15.13 11.79 15.13C11.91 15.13 11.98 15.08 12.04 15.02C11.96 14.70 11.96 14.22 11.96 11.70C11.96 8.99 13.31 8.25 14.21 8.25C15.51 8.25 15.97 9.11 15.97 10.85L15.99 14.83C15.99 15.02 16.07 15.13 16.23 15.13C16.35 15.13 16.42 15.08 16.48 15.02C16.42 14.80 16.39 14.36 16.39 13.80L16.38 11.28C16.45 8.90 17.77 8.25 18.63 8.25C19.94 8.25 20.40 9.11 20.40 10.85L20.41 14.83C20.41 15.02 20.50 15.13 20.65 15.13C20.78 15.13 20.85 15.08 20.90 15.02C20.85 14.80 20.82 14.36 20.82 13.80ZM24.99 18.38C26.88 18.38 28.27 17.40 28.27 14.38L28.27 8.78C27.61 7.97 26.46 7.85 25.80 7.85C23.10 7.85 22.82 10.25 22.82 11.56C22.82 14.04 23.72 15.16 25.28 15.16C26.53 15.16 27.47 14.45 27.83 13.27L27.83 14.15C27.83 16.79 27.01 17.99 25.02 17.99C24.11 17.99 23.27 17.63 23.27 16.60C23.27 16.27 23.37 16.02 23.63 15.86C23.58 15.78 23.49 15.74 23.37 15.74C23.11 15.74 22.86 16.09 22.86 16.65C22.86 17.81 23.84 18.38 24.99 18.38ZM25.31 14.77C24.00 14.77 23.27 13.80 23.27 11.59C23.27 10.37 23.53 8.25 25.68 8.25C26.60 8.25 27.45 8.47 27.85 8.96L27.83 11.56C27.83 12.74 27.30 14.77 25.31 14.77Z"></path></g><!----><g data-v-423bf9ae="" id="dc99bebb-31fb-47cb-ba6f-c538c053c9b2" transform="matrix(1.5510555387036118,0,0,1.5510555387036118,-24.60100316060722,-31.565005474867704)" stroke="none" fill="black"><path d="M72.793 79.012c-1.082 0-1.795-.032-1.795-.032l-26 .001c-16.016 0-29.046-12.979-29.046-28.934 0-16.023 13.019-29.06 29.021-29.06s29.021 12.982 29.021 28.94v10.531c0 5.152 3.158 7.462 5.944 9.499 1.778 1.3 3.457 2.528 3.993 4.336.241.814.109 1.593-.381 2.249-1.223 1.64-4.842 2.47-10.757 2.47zm-27.82-56.025c-14.9 0-27.021 12.139-27.021 27.06 0 14.852 12.133 26.934 27.046 26.934h26.046c.057.002.729.031 1.749.031 5.84 0 8.581-.896 9.155-1.665.093-.124.136-.248.065-.484-.344-1.161-1.693-2.147-3.256-3.29-2.854-2.087-6.764-4.945-6.764-11.113V49.928c.001-14.855-12.12-26.941-27.02-26.941z"></path><path d="M38.703 45.096c-3.65 0-6.619-2.97-6.619-6.62s2.969-6.62 6.619-6.62 6.62 2.97 6.62 6.62-2.97 6.62-6.62 6.62zm0-11.239c-2.547 0-4.619 2.072-4.619 4.62s2.072 4.62 4.619 4.62c2.547 0 4.62-2.072 4.62-4.62s-2.073-4.62-4.62-4.62zM73.25 56.491l-15.803-11.77c-1.705-1.269-4.316-1.197-5.948.164L38.662 55.588c-.9.75-2.415.746-3.309-.012l-4.313-3.649c-1.623-1.373-4.251-1.358-5.857.037l-6.516 5.656a1 1 0 0 0 1.311 1.51l6.516-5.656c.878-.761 2.368-.771 3.254-.02l4.313 3.649c1.644 1.392 4.227 1.399 5.881.021L52.78 46.421c.903-.756 2.527-.799 3.472-.095l16.74 12.467c.08.059.169.089.258.122v-2.424z"></path></g><!----></svg>