<svg data-v-423bf9ae="" xmlns="http://www.w3.org/2000/svg" viewBox="0 0 273 90" class="iconLeft"><!----><!----><!----><g data-v-423bf9ae="" id="97b9bb61-8628-49a6-9fca-fcdcd8e1a481" fill="white" transform="matrix(4.618937725726786,0,0,4.618937725726786,118.78510029594477,-2.736720617910507)"><path d="M1.48 14.08L6.90 14.08L6.90 13.02L2.60 13.02L2.60 4.28L1.48 4.28ZM8.39 4.59C8.39 5.03 8.69 5.35 9.10 5.35C9.51 5.35 9.81 5.03 9.81 4.59C9.81 4.16 9.51 3.84 9.10 3.84C8.69 3.84 8.39 4.16 8.39 4.59ZM8.57 14.08L9.65 14.08L9.65 6.71L8.57 6.71ZM12.31 14.08L13.38 14.08L13.38 10.46C13.38 8.88 14.29 7.78 15.81 7.74C17.09 7.74 17.85 8.51 17.85 9.83L17.85 14.08L18.96 14.08L18.96 10.46C18.96 8.88 19.84 7.78 21.36 7.74C22.64 7.74 23.41 8.51 23.41 9.83L23.41 14.08L24.50 14.08L24.50 9.53C24.50 7.76 23.48 6.66 21.76 6.66C20.34 6.68 19.31 7.29 18.84 8.60C18.54 7.38 17.58 6.66 16.20 6.66C14.87 6.68 13.87 7.22 13.38 8.37L13.38 6.71L12.31 6.71ZM26.18 10.19C26.18 12.29 27.55 13.76 29.54 13.76C30.79 13.76 31.74 13.20 32.26 12.22L32.26 13.34C32.26 14.88 31.21 15.86 29.60 15.86C28.62 15.85 27.85 15.53 27.12 14.92L26.61 15.76C27.51 16.44 28.48 16.81 29.64 16.83C31.88 16.83 33.35 15.47 33.35 13.31L33.35 6.71L32.26 6.71L32.26 8.20C31.72 7.22 30.77 6.66 29.51 6.66C27.54 6.68 26.18 8.13 26.18 10.19ZM27.20 10.23C27.22 8.71 28.25 7.62 29.74 7.62C31.21 7.62 32.26 8.69 32.26 10.23C32.26 11.75 31.21 12.84 29.74 12.84C28.25 12.84 27.22 11.75 27.20 10.23Z"></path></g><!----><g data-v-423bf9ae="" id="99ed1665-7006-47f9-83de-5eaefb183288" transform="matrix(1.5510555387036118,0,0,1.5510555387036118,-24.60100316060722,-31.565005474867704)" stroke="none" fill="white"><path d="M72.793 79.012c-1.082 0-1.795-.032-1.795-.032l-26 .001c-16.016 0-29.046-12.979-29.046-28.934 0-16.023 13.019-29.06 29.021-29.06s29.021 12.982 29.021 28.94v10.531c0 5.152 3.158 7.462 5.944 9.499 1.778 1.3 3.457 2.528 3.993 4.336.241.814.109 1.593-.381 2.249-1.223 1.64-4.842 2.47-10.757 2.47zm-27.82-56.025c-14.9 0-27.021 12.139-27.021 27.06 0 14.852 12.133 26.934 27.046 26.934h26.046c.057.002.729.031 1.749.031 5.84 0 8.581-.896 9.155-1.665.093-.124.136-.248.065-.484-.344-1.161-1.693-2.147-3.256-3.29-2.854-2.087-6.764-4.945-6.764-11.113V49.928c.001-14.855-12.12-26.941-27.02-26.941z"></path><path d="M38.703 45.096c-3.65 0-6.619-2.97-6.619-6.62s2.969-6.62 6.619-6.62 6.62 2.97 6.62 6.62-2.97 6.62-6.62 6.62zm0-11.239c-2.547 0-4.619 2.072-4.619 4.62s2.072 4.62 4.619 4.62c2.547 0 4.62-2.072 4.62-4.62s-2.073-4.62-4.62-4.62zM73.25 56.491l-15.803-11.77c-1.705-1.269-4.316-1.197-5.948.164L38.662 55.588c-.9.75-2.415.746-3.309-.012l-4.313-3.649c-1.623-1.373-4.251-1.358-5.857.037l-6.516 5.656a1 1 0 0 0 1.311 1.51l6.516-5.656c.878-.761 2.368-.771 3.254-.02l4.313 3.649c1.644 1.392 4.227 1.399 5.881.021L52.78 46.421c.903-.756 2.527-.799 3.472-.095l16.74 12.467c.08.059.169.089.258.122v-2.424z"></path></g><!----></svg>