<svg data-v-423bf9ae="" xmlns="http://www.w3.org/2000/svg" viewBox="0 0 70.41408578818383 60" class="icon"><!----><!----><!----><!----><g data-v-423bf9ae="" id="87fcc58e-11ec-4575-978c-ad79b2cb688f" transform="matrix(1.0340370258024079,0,0,1.0340370258024079,-16.494960460749866,-21.701340472421563)" stroke="none" fill="white"><path d="M72.793 79.012c-1.082 0-1.795-.032-1.795-.032l-26 .001c-16.016 0-29.046-12.979-29.046-28.934 0-16.023 13.019-29.06 29.021-29.06s29.021 12.982 29.021 28.94v10.531c0 5.152 3.158 7.462 5.944 9.499 1.778 1.3 3.457 2.528 3.993 4.336.241.814.109 1.593-.381 2.249-1.223 1.64-4.842 2.47-10.757 2.47zm-27.82-56.025c-14.9 0-27.021 12.139-27.021 27.06 0 14.852 12.133 26.934 27.046 26.934h26.046c.057.002.729.031 1.749.031 5.84 0 8.581-.896 9.155-1.665.093-.124.136-.248.065-.484-.344-1.161-1.693-2.147-3.256-3.29-2.854-2.087-6.764-4.945-6.764-11.113V49.928c.001-14.855-12.12-26.941-27.02-26.941z"></path><path d="M38.703 45.096c-3.65 0-6.619-2.97-6.619-6.62s2.969-6.62 6.619-6.62 6.62 2.97 6.62 6.62-2.97 6.62-6.62 6.62zm0-11.239c-2.547 0-4.619 2.072-4.619 4.62s2.072 4.62 4.619 4.62c2.547 0 4.62-2.072 4.62-4.62s-2.073-4.62-4.62-4.62zM73.25 56.491l-15.803-11.77c-1.705-1.269-4.316-1.197-5.948.164L38.662 55.588c-.9.75-2.415.746-3.309-.012l-4.313-3.649c-1.623-1.373-4.251-1.358-5.857.037l-6.516 5.656a1 1 0 0 0 1.311 1.51l6.516-5.656c.878-.761 2.368-.771 3.254-.02l4.313 3.649c1.644 1.392 4.227 1.399 5.881.021L52.78 46.421c.903-.756 2.527-.799 3.472-.095l16.74 12.467c.08.059.169.089.258.122v-2.424z"></path></g><!----></svg>