<svg data-v-423bf9ae="" xmlns="http://www.w3.org/2000/svg" viewBox="0 0 481 90" class="iconLeft"><!----><defs data-v-423bf9ae=""><linearGradient data-v-423bf9ae="" gradientTransform="rotate(25)" id="a73af8c5-ce96-47fc-8c49-a3e96967ea20" x1="0%" y1="0%" x2="100%" y2="0%"><stop data-v-423bf9ae="" offset="0%" style="stop-color: rgb(0, 103, 245); stop-opacity: 1;"></stop><stop data-v-423bf9ae="" offset="100%" style="stop-color: rgb(13, 197, 231); stop-opacity: 1;"></stop></linearGradient></defs><!----><g data-v-423bf9ae="" id="daf263ec-177e-4acb-aeba-044efc7bfd24" fill="#ffffff" transform="matrix(4.866180078772107,0,0,4.866180078772107,236.5743570839008,-1.3017023229743074)"><path d="M2.56 11.87L7.04 11.87L7.04 13.05L1.20 13.05L1.20 3.35L2.56 3.35L2.56 11.87ZM10.85 12.11L10.85 12.11L10.85 12.11Q11.31 12.11 11.67 12.09L11.67 12.09L11.67 12.09Q12.03 12.07 12.26 12.01L12.26 12.01L12.26 9.84L12.26 9.84Q12.12 9.77 11.81 9.72L11.81 9.72L11.81 9.72Q11.49 9.67 11.05 9.67L11.05 9.67L11.05 9.67Q10.75 9.67 10.42 9.72L10.42 9.72L10.42 9.72Q10.09 9.76 9.82 9.89L9.82 9.89L9.82 9.89Q9.55 10.02 9.37 10.25L9.37 10.25L9.37 10.25Q9.18 10.49 9.18 10.86L9.18 10.86L9.18 10.86Q9.18 11.56 9.63 11.84L9.63 11.84L9.63 11.84Q10.08 12.11 10.85 12.11ZM10.74 5.59L10.74 5.59L10.74 5.59Q11.52 5.59 12.06 5.79L12.06 5.79L12.06 5.79Q12.60 5.99 12.93 6.36L12.93 6.36L12.93 6.36Q13.26 6.73 13.40 7.25L13.40 7.25L13.40 7.25Q13.54 7.76 13.54 8.37L13.54 8.37L13.54 12.92L13.54 12.92Q13.37 12.95 13.07 13.00L13.07 13.00L13.07 13.00Q12.77 13.05 12.39 13.09L12.39 13.09L12.39 13.09Q12.01 13.13 11.57 13.17L11.57 13.17L11.57 13.17Q11.13 13.20 10.70 13.20L10.70 13.20L10.70 13.20Q10.08 13.20 9.56 13.08L9.56 13.08L9.56 13.08Q9.04 12.95 8.67 12.68L8.67 12.68L8.67 12.68Q8.29 12.40 8.08 11.96L8.08 11.96L8.08 11.96Q7.87 11.51 7.87 10.88L7.87 10.88L7.87 10.88Q7.87 10.28 8.11 9.84L8.11 9.84L8.11 9.84Q8.36 9.41 8.78 9.14L8.78 9.14L8.78 9.14Q9.20 8.88 9.76 8.75L9.76 8.75L9.76 8.75Q10.32 8.62 10.93 8.62L10.93 8.62L10.93 8.62Q11.13 8.62 11.34 8.64L11.34 8.64L11.34 8.64Q11.55 8.67 11.74 8.70L11.74 8.70L11.74 8.70Q11.93 8.74 12.07 8.76L12.07 8.76L12.07 8.76Q12.21 8.79 12.26 8.81L12.26 8.81L12.26 8.44L12.26 8.44Q12.26 8.12 12.19 7.80L12.19 7.80L12.19 7.80Q12.12 7.49 11.94 7.25L11.94 7.25L11.94 7.25Q11.76 7 11.45 6.85L11.45 6.85L11.45 6.85Q11.13 6.71 10.63 6.71L10.63 6.71L10.63 6.71Q9.98 6.71 9.50 6.80L9.50 6.80L9.50 6.80Q9.02 6.89 8.78 6.99L8.78 6.99L8.62 5.91L8.62 5.91Q8.88 5.80 9.46 5.69L9.46 5.69L9.46 5.69Q10.05 5.59 10.74 5.59ZM18.38 5.61L18.38 5.61L18.38 5.61Q18.55 5.61 18.77 5.63L18.77 5.63L18.77 5.63Q18.98 5.66 19.19 5.69L19.19 5.69L19.19 5.69Q19.40 5.73 19.58 5.76L19.58 5.76L19.58 5.76Q19.75 5.80 19.84 5.82L19.84 5.82L19.61 6.96L19.61 6.96Q19.46 6.90 19.10 6.83L19.10 6.83L19.10 6.83Q18.75 6.75 18.19 6.75L18.19 6.75L18.19 6.75Q17.82 6.75 17.46 6.83L17.46 6.83L17.46 6.83Q17.11 6.90 17.00 6.93L17.00 6.93L17.00 13.05L15.69 13.05L15.69 6.08L15.69 6.08Q16.16 5.91 16.84 5.76L16.84 5.76L16.84 5.76Q17.53 5.61 18.38 5.61ZM23.56 12.11L23.56 12.11L23.56 12.11Q24.02 12.11 24.38 12.09L24.38 12.09L24.38 12.09Q24.74 12.07 24.98 12.01L24.98 12.01L24.98 9.84L24.98 9.84Q24.84 9.77 24.52 9.72L24.52 9.72L24.52 9.72Q24.21 9.67 23.76 9.67L23.76 9.67L23.76 9.67Q23.46 9.67 23.14 9.72L23.14 9.72L23.14 9.72Q22.81 9.76 22.53 9.89L22.53 9.89L22.53 9.89Q22.26 10.02 22.08 10.25L22.08 10.25L22.08 10.25Q21.90 10.49 21.90 10.86L21.90 10.86L21.90 10.86Q21.90 11.56 22.34 11.84L22.34 11.84L22.34 11.84Q22.79 12.11 23.56 12.11ZM23.45 5.59L23.45 5.59L23.45 5.59Q24.23 5.59 24.77 5.79L24.77 5.79L24.77 5.79Q25.31 5.99 25.64 6.36L25.64 6.36L25.64 6.36Q25.97 6.73 26.11 7.25L26.11 7.25L26.11 7.25Q26.25 7.76 26.25 8.37L26.25 8.37L26.25 12.92L26.25 12.92Q26.08 12.95 25.78 13.00L25.78 13.00L25.78 13.00Q25.48 13.05 25.10 13.09L25.10 13.09L25.10 13.09Q24.72 13.13 24.28 13.17L24.28 13.17L24.28 13.17Q23.84 13.20 23.41 13.20L23.41 13.20L23.41 13.20Q22.79 13.20 22.27 13.08L22.27 13.08L22.27 13.08Q21.76 12.95 21.38 12.68L21.38 12.68L21.38 12.68Q21 12.40 20.79 11.96L20.79 11.96L20.79 11.96Q20.58 11.51 20.58 10.88L20.58 10.88L20.58 10.88Q20.58 10.28 20.83 9.84L20.83 9.84L20.83 9.84Q21.07 9.41 21.49 9.14L21.49 9.14L21.49 9.14Q21.91 8.88 22.47 8.75L22.47 8.75L22.47 8.75Q23.03 8.62 23.65 8.62L23.65 8.62L23.65 8.62Q23.84 8.62 24.05 8.64L24.05 8.64L24.05 8.64Q24.26 8.67 24.45 8.70L24.45 8.70L24.45 8.70Q24.64 8.74 24.78 8.76L24.78 8.76L24.78 8.76Q24.92 8.79 24.98 8.81L24.98 8.81L24.98 8.44L24.98 8.44Q24.98 8.12 24.91 7.80L24.91 7.80L24.91 7.80Q24.84 7.49 24.65 7.25L24.65 7.25L24.65 7.25Q24.47 7 24.16 6.85L24.16 6.85L24.16 6.85Q23.84 6.71 23.34 6.71L23.34 6.71L23.34 6.71Q22.69 6.71 22.21 6.80L22.21 6.80L22.21 6.80Q21.73 6.89 21.49 6.99L21.49 6.99L21.34 5.91L21.34 5.91Q21.59 5.80 22.18 5.69L22.18 5.69L22.18 5.69Q22.76 5.59 23.45 5.59ZM28.49 13.05L28.49 3.35L29.85 3.35L29.85 13.05L28.49 13.05ZM32.17 13.05L32.17 5.98L32.17 5.98Q32.62 5.87 33.35 5.74L33.35 5.74L33.35 5.74Q34.09 5.61 35.06 5.61L35.06 5.61L35.06 5.61Q35.76 5.61 36.23 5.80L36.23 5.80L36.23 5.80Q36.71 5.99 37.03 6.36L37.03 6.36L37.03 6.36Q37.13 6.29 37.34 6.16L37.34 6.16L37.34 6.16Q37.55 6.03 37.86 5.92L37.86 5.92L37.86 5.92Q38.16 5.80 38.54 5.71L38.54 5.71L38.54 5.71Q38.92 5.61 39.35 5.61L39.35 5.61L39.35 5.61Q40.19 5.61 40.73 5.86L40.73 5.86L40.73 5.86Q41.26 6.10 41.56 6.55L41.56 6.55L41.56 6.55Q41.86 7 41.97 7.62L41.97 7.62L41.97 7.62Q42.07 8.23 42.07 8.96L42.07 8.96L42.07 13.05L40.77 13.05L40.77 9.24L40.77 9.24Q40.77 8.60 40.70 8.13L40.70 8.13L40.70 8.13Q40.64 7.67 40.47 7.36L40.47 7.36L40.47 7.36Q40.29 7.06 39.99 6.91L39.99 6.91L39.99 6.91Q39.69 6.76 39.21 6.76L39.21 6.76L39.21 6.76Q38.56 6.76 38.13 6.94L38.13 6.94L38.13 6.94Q37.70 7.11 37.55 7.25L37.55 7.25L37.55 7.25Q37.66 7.62 37.72 8.05L37.72 8.05L37.72 8.05Q37.77 8.48 37.77 8.96L37.77 8.96L37.77 13.05L36.47 13.05L36.47 9.24L36.47 9.24Q36.47 8.60 36.40 8.13L36.40 8.13L36.40 8.13Q36.33 7.67 36.16 7.36L36.16 7.36L36.16 7.36Q35.98 7.06 35.68 6.91L35.68 6.91L35.68 6.91Q35.38 6.76 34.92 6.76L34.92 6.76L34.92 6.76Q34.72 6.76 34.50 6.78L34.50 6.78L34.50 6.78Q34.27 6.79 34.07 6.81L34.07 6.81L34.07 6.81Q33.87 6.83 33.70 6.86L33.70 6.86L33.70 6.86Q33.53 6.89 33.47 6.90L33.47 6.90L33.47 13.05L32.17 13.05ZM48.79 12.63L48.79 12.32L48.79 12.32Q48.62 12.43 48.14 12.61L48.14 12.61L48.14 12.61Q47.66 12.78 47.01 12.78L47.01 12.78L47.01 12.78Q46.35 12.78 45.77 12.57L45.77 12.57L45.77 12.57Q45.19 12.36 44.76 11.92L44.76 11.92L44.76 11.92Q44.32 11.48 44.07 10.82L44.07 10.82L44.07 10.82Q43.82 10.16 43.82 9.25L43.82 9.25L43.82 9.25Q43.82 8.46 44.06 7.79L44.06 7.79L44.06 7.79Q44.30 7.13 44.75 6.64L44.75 6.64L44.75 6.64Q45.21 6.16 45.86 5.89L45.86 5.89L45.86 5.89Q46.52 5.61 47.35 5.61L47.35 5.61L47.35 5.61Q48.26 5.61 48.94 5.75L48.94 5.75L48.94 5.75Q49.62 5.88 50.08 5.99L50.08 5.99L50.08 12.49L50.08 12.49Q50.08 14.17 49.21 14.92L49.21 14.92L49.21 14.92Q48.34 15.68 46.58 15.68L46.58 15.68L46.58 15.68Q45.89 15.68 45.28 15.57L45.28 15.57L45.28 15.57Q44.67 15.46 44.23 15.30L44.23 15.30L44.46 14.17L44.46 14.17Q44.86 14.32 45.42 14.44L45.42 14.44L45.42 14.44Q45.99 14.56 46.61 14.56L46.61 14.56L46.61 14.56Q47.77 14.56 48.28 14.10L48.28 14.10L48.28 14.10Q48.79 13.64 48.79 12.63L48.79 12.63ZM48.78 11.17L48.78 6.92L48.78 6.92Q48.58 6.86 48.25 6.81L48.25 6.81L48.25 6.81Q47.92 6.76 47.36 6.76L47.36 6.76L47.36 6.76Q46.31 6.76 45.75 7.45L45.75 7.45L45.75 7.45Q45.18 8.13 45.18 9.27L45.18 9.27L45.18 9.27Q45.18 9.90 45.34 10.35L45.34 10.35L45.34 10.35Q45.50 10.79 45.77 11.09L45.77 11.09L45.77 11.09Q46.05 11.38 46.40 11.52L46.40 11.52L46.40 11.52Q46.76 11.66 47.14 11.66L47.14 11.66L47.14 11.66Q47.66 11.66 48.09 11.52L48.09 11.52L48.09 11.52Q48.52 11.37 48.78 11.17L48.78 11.17Z"></path></g><!----><g data-v-423bf9ae="" id="f722cd0f-7b2e-4cf7-83eb-10c3f980863e" transform="matrix(2.586206669756425,0,0,2.586206669756425,-17.310333487821254,-83.71033501370016)" stroke="none" fill="#ffffff"><switch><g><path d="M9.2 67l-.2-.1h-.6c0-.3 0-.5 5.5-4.9.3-.2.5-.4.6-.5l1.7-1.7c3-2.9 4.5-4.4 4.9-4.6 1.3-.6 2-1.1 2.2-1.4.3-.6 2.9-2.2 3.9-2.8.6-.5 1.4-.6 2.1-.2l2.9 1.4c.2.1 1.8.5 2.3 1 .3.3 1.6.8 2.3 1l-.3.8c-.3-.1-2.1-.7-2.6-1.2-.3-.2-1.3-.6-2-.8l-3-1.4c-.4-.2-.9-.1-1.3.2-1.6 1-3.5 2.2-3.7 2.5-.3.7-1.5 1.3-2.5 1.8-.4.2-3.2 3-4.7 4.5-1.1 1-1.6 1.6-1.8 1.7-.1.1-.3.2-.6.5-3.1 2.4-4.8 3.9-5.1 4.2z"></path><path d="M88 67.2c-5.1-5.3-9.8-7.3-11.7-7.3-.6 0-1.4.2-2.1.5-1.5.5-3.1 1-4.2-.3-1.3-1.6-3.6-2.9-4.6-3.4-1-.5-1.8-2-1.3-3.5.4-1.2.4-3.5 0-4.9-.4-1.4-3.6-5.8-4.6-6.4-.8-.5-1.9-2.5-3.2-4.8-.4-.7-.8-1.4-.9-1.5-.3-.3-1.7-.8-2.7-.7-.4 0-.4.1-.6.3-.2.2-.4.6-.9.9-2.2 1.4-1.4 2.9-1 3.9.4.8 0 1.9-.6 2.6-.8 1-1.9 1.6-2.8 1.4-.9-.2-1.7-.1-2.1.3-.3.2-.4.5-.5.8-.2 1.1-.7 3.3-1.5 4.4-.7 1-10.6 10.8-11.1 11.2l-.8-.7c3.6-3.5 10.4-10.4 11-11.2.7-.9 1.2-2.9 1.4-4 .1-.6.4-1 .8-1.4.7-.5 1.6-.6 2.8-.4 1 .2 1.8-.8 2-1.1.5-.7.7-1.4.6-1.6-.5-1-1.6-3.2 1.2-5 .4-.3.6-.5.7-.7.3-.4.5-.7 1.3-.7 1.1 0 2.8.5 3.3 1 .2.2.4.6 1 1.7.8 1.4 2.3 4.1 2.9 4.5 1.2.7 4.5 5.3 5 6.9.5 1.6.5 4.1 0 5.5-.4 1 .1 2.1.8 2.4.1.1 3.1 1.5 4.9 3.6.7.8 1.7.6 3.3 0 .8-.3 1.7-.5 2.4-.5 1.8 0 6.6 1.7 12.3 7.6l-.5.6z"></path><path d="M48.5 62.6l-.7-.5c.1-.1 6.2-7.7 6.3-10.8.1-2.5 1.2-5.3 2-7.3.3-.6.5-1.2.6-1.6.4-1.1-.3-2-.7-2.5-.1-.2-.2-.3-.3-.4l-.1-.3c-.2-.4-.5-1-.9-2.1-.4-.9-1.8-2.1-2.3-2.4l.5-.7c.1.1 2 1.4 2.6 2.8.4 1 .7 1.6.9 2l.1.3s.1.2.2.3c.5.6 1.4 1.7.9 3.3-.1.4-.4 1-.6 1.6-.8 1.9-1.9 4.6-1.9 7-.2 3.4-6.3 11-6.6 11.3z"></path><path d="M65.6 67l-.9-.1c.3-2.3-1-4.2-2.3-6.2-.7-1-1.4-2.1-1.9-3.2-1.5-3.2-5.8-5.3-5.9-5.3l.4-.8c.2.1 4.7 2.2 6.3 5.8.5 1.1 1.2 2.1 1.8 3.1 1.5 2 2.8 4 2.5 6.7zM52.2 66.8c-.6-3.6-3.3-4.1-4.2-4-.9.1-2.2-.6-3.8-2.3-.6-.5-1.2-1.2-1.5-1.5-.1-.1-.4-.2-1.6-.1-.6.1-3 2.4-4.9 4.6l-.7-.6c1-1.1 4.2-4.8 5.5-4.9 1.2-.1 2-.1 2.4.4.2.3.8 1 1.4 1.5 2 2 2.9 2.1 3.1 2 1.1-.1 4.5.4 5.2 4.7l-.9.2z"></path><path d="M7 66.5h86v.9H7zM33.9 42.6c-2.8 0-5.1-2.2-5.1-5s2.3-5 5.1-5 5.1 2.2 5.1 5c.1 2.8-2.2 5-5.1 5zm0-9.1c-2.3 0-4.3 1.9-4.3 4.1s1.9 4.1 4.3 4.1 4.3-1.9 4.3-4.1-1.9-4.1-4.3-4.1z"></path></g></switch></g><!----></svg>