<svg version="1" xmlns="http://www.w3.org/2000/svg" width="1058.667" height="1058.667" viewBox="0 0 794.000000 794.000000"><path d="M243 210.6c-10.8 2.1-18.8 6.3-26.2 14-4.1 4.1-9.4 13.4-10.2 17.7-.2 1.4-.7 3.1-1 3.6-1.1 1.7-.9 14.5.3 19.4 3.5 14.8 16.3 28.2 31.6 32.9 1.7.5 5.9 1.2 9.5 1.5 18 1.4 36.2-8 44.3-22.9 7.3-13.3 6.9-31-1-44.7-5.1-8.9-18.4-18.9-27.3-20.6-11.8-2.3-12.5-2.3-20-.9zm22.1 10.3c4.7 1.8 13.7 8.1 14.7 10.3.2.3 1.4 1.9 2.7 3.4 3.6 4.2 6.6 13.2 6.6 20 .1 10.5-4.3 19.9-12.7 27.3-7.5 6.6-14.5 9.2-25.4 9.6-14.6.5-29.6-8.7-35.7-22.2-3.7-8.1-3.8-20.4-.3-27.8 1.3-2.8 2.8-5.2 3.2-5.3.4-.2.8-.9.8-1.6 0-1.7 7-7.9 12.5-11.1 9.5-5.6 23-6.7 33.6-2.6zM414.6 222.1c-1.6.4-5.5 3.4-8.6 6.6-3 3.2-8.1 7.9-11.2 10.5-6.4 5.4-9.8 11.5-10.2 18.4-.4 5.3 1.3 13.4 3.7 18.1 2.4 4.5 2.1 7.3-1.2 13.7-4.7 8.9-12.3 14.6-18.6 14-10.7-1.1-18.2-.7-22.7 1.3-6 2.7-10.3 8.6-11.8 16.1-2.5 12.4-4.9 20.1-9.1 28.7-3 6.3-9.7 13.8-35.6 40.3l-14 14.2-3.9-1.6c-2.2-.8-5.3-2.2-7.1-3-1.7-.8-3.4-1.4-3.9-1.4-.4 0-2.1-1.1-3.8-2.4-4.3-3.2-10.6-6.2-16.6-7.7-2.7-.7-5-1.6-5-2.1 0-.4-.3-.7-.7-.6-.5.1-7.1-2.9-14.8-6.7-18.6-9-19.6-9-33.5-.5-5.8 3.5-10.7 6.7-11 7-.3.3-3.6 2.6-7.5 5.2-3.8 2.6-9.3 7.1-12.1 10-3.2 3.3-8.2 7-13.5 9.8-10.5 5.5-12 6.9-54.4 48.5-7.8 7.7-18.9 17.7-24.7 22.2-5.8 4.6-11.6 9.2-12.9 10.3-1.3 1.1-2.9 2.3-3.4 2.8-3 2.5-16.1 13.7-16.5 14.2-.3.3-2.2 2-4.3 3.8-3.5 2.9-4.3 3.2-10.7 3.2H8.1l.2 4c.1 2.8.6 4 1.7 4.1 10 .6 771 .2 771-.4 0-.5.5-.5 1-.2.6.4 1-1 1-3.4 0-3.2-.4-4.1-1.7-4.1-1-.1-10.5-.1-21.1-.1h-19.4l-8.2-8.2c-12.9-12.8-30.2-26.9-44.1-35.9-8.5-5.5-19.6-12-21-12.2-.5-.1-2.4-1-4.1-1.9-4.6-2.4-15.1-6.2-21.4-7.7-10.7-2.6-18.5-1.8-35.8 3.9-17.1 5.7-20 5.2-30.7-5.5-8.4-8.4-17.6-15.1-31-22.9-12.5-7.2-14.1-8.7-16-14.4-1.5-4.5-1.3-8.2.5-13.1.9-2.7 2.8-12.5 2.9-15 0-11.5 0-15.2-.3-19-.2-2.5-.5-4.6-.6-4.8-.3-.3-.5-.9-1.4-5.9-.4-2.4-1.9-6.6-3.2-9.4-2.4-4.9-11.2-19.5-13.3-22.1-3.3-4-8.1-10.9-8.1-11.7 0-.5-.3-1.1-.7-1.3-.5-.2-2.8-2.8-5.3-5.8-5-6.3-12.5-13.9-15.6-16.1-2.3-1.5-12.4-15.9-12.4-17.7 0-.5-.4-1.2-.8-1.4-.5-.2-4.1-6.2-8.1-13.3-4.1-7.2-8.5-14.9-9.8-17.3-1.3-2.3-3.3-5.1-4.5-6.2-5.2-4.9-26.4-9.9-33.2-7.9zm11.5 14.1c7 6.8 10.3 11.2 12.5 16.8 3.4 9.1 8.3 18.8 12.2 24.6 6.5 9.7 7 12.9 3.7 24.7-.4 1.6-1.8 5-3 7.5-1.2 2.6-3.4 8.1-4.9 12.2-1.5 4.1-3.1 8.4-3.6 9.5-.5 1.1-1.6 4.5-2.5 7.5-.9 3-1.9 6.2-2.2 7-.7 1.7-.7 1.7-2.3 8.5-.7 2.7-1.4 5.9-1.6 7-.1 1.1-.5 3.1-.8 4.5-.3 1.4-.8 5.8-1.1 9.9-.6 8.2-3 16.2-7.9 26-4.2 8.5-9.5 18.2-11.1 20.1-.6.8-3.2 4.9-5.7 9-2.6 4.1-5.6 8.6-6.7 9.9-1.1 1.3-2.3 3.2-2.6 4.2-.4 1.1-1.1 1.9-1.6 1.9s-.9.7-.9 1.5-.4 1.5-1 1.5c-.5 0-1.6 1.2-2.4 2.7-.8 1.6-2.6 4.1-4 5.7-1.4 1.6-2.6 3.2-2.6 3.5 0 .3-1.4 2.1-3 4-1.7 1.8-3 3.7-3 4.2s-1.1 1.6-2.5 2.5c-2.4 1.6-2.8 1.5-8.8-1.4-7.1-3.5-22.9-17.3-30.1-26.2-4.6-5.6-6.9-6.7-15.1-6.9-7.3-.2-15.5 1.4-15.5 3.1 0 .4-.5.8-1.1.8-2.7 0-19.7 16-35.2 33l-6.8 7.5 3.3 2.7 3.2 2.8 5-5.7c8-9.1 26-26.6 32.1-31.3 5.2-4 6-4.3 12.7-4.5l7-.2 11.6 11.5c6.4 6.2 13.2 12.6 15.1 14 2 1.5 3.8 3 4.1 3.3.8 1 7.5 4.3 8.3 4.1.4-.1.7.2.7.8 0 .6.3.9.8.9.4-.1.9 0 1.2.1.3.1 3.7.4 7.5.5 16.4.7 27.9 8.7 33.9 23.5 3.3 8.2 3.5 8.9 2.8 9.4-.4.2-86.3.4-190.7.4h-190l3.5-3c3-2.5 19.9-16.2 33.5-27.1 9.6-7.7 18.2-15.6 35.6-32.8 23.4-23 30.5-29.9 31.2-29.9.3 0 4-2 8.3-4.4 8-4.6 12.1-7.9 16.2-13.1 1.2-1.6 2.2-2.6 2.2-2.3 0 .4 1.2-.4 2.6-1.7 1.5-1.4 3.3-2.5 4-2.5.8 0 1.4-.4 1.4-.8 0-.5 2.8-2.5 6.3-4.6 3.4-2.1 9.3-5.7 13.2-8.1 9.7-6 9.5-6.1 37 7 1.7.8 7.3 3.1 12.5 5.1 5.2 2 9.9 4.2 10.6 4.9 1.3 1.3 10 5.7 14.9 7.5l2.9 1.1-23.3 23.1-23.2 23.1 3.4 3.5 3.5 3.5 18.7-18.4c18.5-18.2 58.5-58.3 70.7-70.9 6.9-7.2 11.3-12.8 14.1-17.7 1.8-3.3 6.3-16.3 7.1-20.5.5-3.2 2.4-10.6 3.7-15 1.7-5.3 7.2-8.9 13.9-9 .8 0 4.7.3 8.6.5 6.1.5 7.8.2 12.3-1.9 6.3-2.9 14.4-11 17.4-17.3 2.9-6.1 2.6-12.8-.8-22.1-4.2-11.5-2.6-18.5 6.2-25.7 2.6-2.1 7-6.1 9.7-9 2.8-2.8 6-5.2 7.1-5.2 1.2-.1 4.5 2.2 7.6 5.1zm15.2-.7c2 .9 3.7 2.1 3.7 2.6s1.1 2.6 2.4 4.7c1.3 2 6.8 11.3 12.2 20.7 9.5 16.4 10.4 17.9 13.2 21 .6.7 1.2 1.8 1.2 2.3 0 .5 2.6 3.1 5.7 5.8 8.3 7.2 10.5 9.6 20.4 22.9 4.9 6.6 9.3 12.4 9.7 13 1.5 2 8 13.1 10.1 17.2 3.4 6.8 4.9 16.6 4.6 29.8-.3 12-1 17.6-2.5 20.6-.5.8-.8 4.6-.6 8.5.4 12.2 4.8 18.1 19.1 25.8 5 2.7 9.2 5.2 9.3 5.7.2.5 1 .9 1.8.9s1.4.3 1.4.8c0 .4 1.6 1.6 3.6 2.7 1.9 1 8.3 6.5 14 12.1 7.2 6.9 11.7 10.5 14.2 11.2 3.7 1.1 12.3.9 17.2-.3 1.4-.3 3-.7 3.5-.9.6-.1 3.5-1 6.5-2.1 3-1 5.5-1.6 5.6-1.4 0 .2.7-.1 1.5-.8 1.5-1.2 7.7-2.5 12.4-2.6 6.1-.1 19.3 3.2 22.3 5.6.6.5 1.2.6 1.2.3 0-1 19.3 9 27.5 14.2 3.9 2.4 10.2 6.7 14 9.5 9.9 7.2 33.5 27.6 33.5 29 0 .3-43.6.6-97 .6l-97-.1.2-3.6c.3-10.6-4.8-25.8-12.9-37.8-2.2-3.3-6.7-10-10-15-7.5-11-10-15.3-15.9-26.9-7.3-14.3-16.7-25.5-30.5-36.1-4.7-3.6-17.6-11.9-23.9-15.3-.8-.4-1.5-2-1.6-3.5-.2-4.1 2.4-19 4.7-27.6 1.8-6.4 11.4-32.3 15.4-41.5 5.7-13 4.6-22.7-3.9-34.3-1.8-2.6-4.4-7-5.6-9.7-7.6-16.9-10.1-21.5-13.8-25.8-4.6-5.3-5.1-6.2-2.4-4.9.9.5 3.4 1.7 5.5 2.7zm2.6 154.5c13.8 7 33.1 23.6 40.5 34.9 2.4 3.6 5.9 9.7 7.7 13.6 1.9 3.8 3.8 7.4 4.2 8 2.4 3 21.2 32.8 23.4 37 4.4 8.6 7.2 17 7.9 24.3l.6 7-52.4.1h-52.5l-1.3-5.7c-3.8-16-16.9-30.3-31.3-34.2l-3.7-1.1 7.3-9.7c4-5.3 8.9-11.9 10.8-14.7 1.9-2.7 4-5.6 4.7-6.3.6-.7 1.2-1.7 1.2-2.2 0-.5.6-1.5 1.3-2.2 5-5.2 23.2-38.1 25.8-46.6.6-2.3 1.4-4.2 1.6-4.2.2 0 2.1.9 4.2 2z"/></svg>