<svg data-v-423bf9ae="" xmlns="http://www.w3.org/2000/svg" viewBox="0 0 273 90" class="iconLeft"><!----><!----><!----><g data-v-423bf9ae="" id="26030f1a-71be-4580-931c-3d5338b65a92" fill="#FAABFF" transform="matrix(4.739336550013062,0,0,4.739336550013062,118.70169650788326,-1.5876798323943504)"><path d="M6.86 13.30C6.97 13.30 7.04 13.22 7.04 13.12C7.04 13.02 6.97 12.95 6.86 12.95L1.81 12.95L1.81 3.68C1.81 3.58 1.74 3.50 1.64 3.50C1.54 3.50 1.46 3.58 1.46 3.68L1.46 13.12C1.46 13.22 1.54 13.30 1.64 13.30L1.67 13.30ZM9.20 13.12C9.20 13.22 9.27 13.30 9.38 13.30C9.46 13.30 9.55 13.22 9.55 13.12L9.55 6.61C9.55 6.50 9.46 6.44 9.38 6.44C9.27 6.44 9.20 6.50 9.20 6.61ZM9.20 4.75C9.20 4.83 9.27 4.91 9.38 4.91C9.46 4.91 9.55 4.83 9.55 4.75L9.55 4.41C9.55 4.30 9.46 4.23 9.38 4.23C9.27 4.23 9.20 4.30 9.20 4.41ZM23.42 13.12C23.42 13.22 23.52 13.30 23.60 13.30C23.70 13.30 23.77 13.22 23.77 13.12L23.77 9.21C23.77 7.69 22.55 6.44 21.04 6.44C19.85 6.44 18.84 7.18 18.45 8.23C18.06 7.18 17.05 6.44 15.88 6.44C14.84 6.44 13.96 7.01 13.48 7.87L13.48 6.62C13.48 6.51 13.40 6.44 13.31 6.44C13.20 6.44 13.15 6.51 13.15 6.62L13.15 8.88C13.13 8.99 13.12 9.10 13.12 9.21L13.12 13.12C13.12 13.22 13.19 13.29 13.27 13.30L13.31 13.30C13.34 13.30 13.38 13.29 13.41 13.26C13.43 13.26 13.43 13.24 13.44 13.24C13.44 13.23 13.44 13.23 13.45 13.22C13.47 13.19 13.48 13.16 13.48 13.12L13.48 9.11C13.52 7.83 14.59 6.79 15.88 6.79C17.21 6.79 18.28 7.87 18.28 9.21L18.28 13.12C18.28 13.22 18.35 13.30 18.45 13.30C18.51 13.30 18.55 13.29 18.59 13.24C18.59 13.23 18.59 13.23 18.61 13.22C18.61 13.20 18.62 13.19 18.62 13.17C18.63 13.16 18.63 13.15 18.63 13.12L18.63 9.21L18.63 9.11C18.68 7.83 19.74 6.79 21.04 6.79C22.34 6.79 23.42 7.87 23.42 9.21L23.42 13.12ZM32.26 6.44C32.17 6.44 32.09 6.52 32.09 6.62L32.09 6.62L32.09 8.32C31.57 7.22 30.46 6.44 29.20 6.44C27.41 6.44 25.97 7.98 25.97 9.87C25.97 11.75 27.41 13.30 29.20 13.30C30.46 13.30 31.57 12.52 32.09 11.41L32.09 12.91C32.09 14.50 30.80 15.78 29.20 15.81C28.74 15.81 28.34 15.69 27.94 15.50C27.85 15.47 27.75 15.50 27.71 15.58C27.66 15.67 27.69 15.76 27.78 15.82C28.22 16.03 28.69 16.16 29.20 16.16C31.00 16.16 32.44 14.70 32.44 12.91L32.44 6.62C32.44 6.52 32.37 6.44 32.26 6.44ZM32.09 9.87C32.09 11.58 30.79 12.94 29.20 12.94C27.62 12.94 26.32 11.58 26.32 9.87C26.32 8.16 27.62 6.79 29.20 6.79C30.79 6.79 32.09 8.16 32.09 9.87L32.09 9.87Z"></path></g><!----><g data-v-423bf9ae="" id="2038a939-5bb9-4b04-a552-b7b5bbff04c2" transform="matrix(1.5510555387036118,0,0,1.5510555387036118,-24.60100316060722,-31.565005474867704)" stroke="none" fill="#FAABFF"><path d="M72.793 79.012c-1.082 0-1.795-.032-1.795-.032l-26 .001c-16.016 0-29.046-12.979-29.046-28.934 0-16.023 13.019-29.06 29.021-29.06s29.021 12.982 29.021 28.94v10.531c0 5.152 3.158 7.462 5.944 9.499 1.778 1.3 3.457 2.528 3.993 4.336.241.814.109 1.593-.381 2.249-1.223 1.64-4.842 2.47-10.757 2.47zm-27.82-56.025c-14.9 0-27.021 12.139-27.021 27.06 0 14.852 12.133 26.934 27.046 26.934h26.046c.057.002.729.031 1.749.031 5.84 0 8.581-.896 9.155-1.665.093-.124.136-.248.065-.484-.344-1.161-1.693-2.147-3.256-3.29-2.854-2.087-6.764-4.945-6.764-11.113V49.928c.001-14.855-12.12-26.941-27.02-26.941z"></path><path d="M38.703 45.096c-3.65 0-6.619-2.97-6.619-6.62s2.969-6.62 6.619-6.62 6.62 2.97 6.62 6.62-2.97 6.62-6.62 6.62zm0-11.239c-2.547 0-4.619 2.072-4.619 4.62s2.072 4.62 4.619 4.62c2.547 0 4.62-2.072 4.62-4.62s-2.073-4.62-4.62-4.62zM73.25 56.491l-15.803-11.77c-1.705-1.269-4.316-1.197-5.948.164L38.662 55.588c-.9.75-2.415.746-3.309-.012l-4.313-3.649c-1.623-1.373-4.251-1.358-5.857.037l-6.516 5.656a1 1 0 0 0 1.311 1.51l6.516-5.656c.878-.761 2.368-.771 3.254-.02l4.313 3.649c1.644 1.392 4.227 1.399 5.881.021L52.78 46.421c.903-.756 2.527-.799 3.472-.095l16.74 12.467c.08.059.169.089.258.122v-2.424z"></path></g><!----></svg>