<svg data-v-423bf9ae="" xmlns="http://www.w3.org/2000/svg" viewBox="0 0 492 90" class="iconLeft"><!----><!----><!----><g data-v-423bf9ae="" id="8d579456-a0f3-4f8d-9c0e-2578ec8dcb5a" fill="black" transform="matrix(4.938271759983636,0,0,4.938271759983636,236.8335232708093,4.086419222056044)"><path d="M1.13 2.21L1.13 11.48L7.24 11.48L7.24 10.47L2.18 10.47L2.18 2.21ZM11.17 4.37C9.13 4.37 7.78 5.98 7.78 7.98C7.78 9.98 9.13 11.59 11.17 11.59C12.33 11.59 13.16 11.12 13.68 10.36L13.68 11.48L14.73 11.48L14.73 4.48L13.68 4.48L13.68 5.61C13.16 4.86 12.33 4.37 11.17 4.37ZM11.31 10.64C9.76 10.64 8.83 9.42 8.83 7.98C8.83 6.54 9.76 5.32 11.31 5.32C12.87 5.32 13.73 6.54 13.73 7.98C13.73 9.42 12.87 10.64 11.31 10.64ZM20.17 4.37C18.44 4.37 17.74 5.73 17.60 6.20L17.60 4.48L16.55 4.48L16.55 11.48L17.60 11.48L17.60 8.40C17.60 6.86 18.55 5.42 20.12 5.42L20.24 5.42L20.24 4.37ZM24.15 4.37C22.11 4.37 20.76 5.98 20.76 7.98C20.76 9.98 22.11 11.59 24.15 11.59C25.31 11.59 26.14 11.12 26.66 10.36L26.66 11.48L27.71 11.48L27.71 4.48L26.66 4.48L26.66 5.61C26.14 4.86 25.31 4.37 24.15 4.37ZM24.29 10.64C22.74 10.64 21.81 9.42 21.81 7.98C21.81 6.54 22.74 5.32 24.29 5.32C25.84 5.32 26.71 6.54 26.71 7.98C26.71 9.42 25.84 10.64 24.29 10.64ZM30.80 2.21L29.75 2.21L29.75 11.48L30.80 11.48ZM38.57 7.29C38.57 6.05 39.42 5.32 40.46 5.32C41.44 5.32 42.20 6.10 42.20 7.28L42.20 11.48L43.25 11.48L43.25 7.25C43.25 5.49 42 4.37 40.66 4.37C39.27 4.37 38.53 5.31 38.25 5.78C37.80 4.89 36.95 4.37 36.02 4.37C34.89 4.37 34.22 4.98 33.89 5.54L33.89 4.48L32.84 4.48L32.84 11.48L33.89 11.48L33.89 7.29C33.89 6.05 34.75 5.32 35.78 5.32C36.76 5.32 37.52 6.10 37.52 7.28L37.52 11.48L38.57 11.48ZM50.46 4.48L50.46 5.60C49.94 4.84 49.11 4.37 47.95 4.37C45.91 4.37 44.56 5.92 44.56 7.92C44.56 9.93 45.91 11.48 47.95 11.48C49.11 11.48 49.94 10.99 50.46 10.23L50.46 11.20C50.46 12.64 49.76 13.41 48.15 13.41C47.08 13.41 46.38 13.01 46.10 12.32L44.94 12.32C45.33 13.54 46.44 14.36 48.20 14.36C50.30 14.36 51.51 13.27 51.51 11.27L51.51 4.48ZM48.09 10.53C46.54 10.53 45.61 9.37 45.61 7.92C45.61 6.48 46.54 5.32 48.09 5.32C49.62 5.32 50.51 6.48 50.51 7.92C50.51 9.37 49.62 10.53 48.09 10.53Z"></path></g><!----><g data-v-423bf9ae="" id="2e4548da-b4a1-4c6a-9ab7-fa4ca7f64144" transform="matrix(2.586206669756425,0,0,2.586206669756425,-17.310333487821254,-83.71033501370016)" stroke="none" fill="black"><switch><g><path d="M9.2 67l-.2-.1h-.6c0-.3 0-.5 5.5-4.9.3-.2.5-.4.6-.5l1.7-1.7c3-2.9 4.5-4.4 4.9-4.6 1.3-.6 2-1.1 2.2-1.4.3-.6 2.9-2.2 3.9-2.8.6-.5 1.4-.6 2.1-.2l2.9 1.4c.2.1 1.8.5 2.3 1 .3.3 1.6.8 2.3 1l-.3.8c-.3-.1-2.1-.7-2.6-1.2-.3-.2-1.3-.6-2-.8l-3-1.4c-.4-.2-.9-.1-1.3.2-1.6 1-3.5 2.2-3.7 2.5-.3.7-1.5 1.3-2.5 1.8-.4.2-3.2 3-4.7 4.5-1.1 1-1.6 1.6-1.8 1.7-.1.1-.3.2-.6.5-3.1 2.4-4.8 3.9-5.1 4.2z"></path><path d="M88 67.2c-5.1-5.3-9.8-7.3-11.7-7.3-.6 0-1.4.2-2.1.5-1.5.5-3.1 1-4.2-.3-1.3-1.6-3.6-2.9-4.6-3.4-1-.5-1.8-2-1.3-3.5.4-1.2.4-3.5 0-4.9-.4-1.4-3.6-5.8-4.6-6.4-.8-.5-1.9-2.5-3.2-4.8-.4-.7-.8-1.4-.9-1.5-.3-.3-1.7-.8-2.7-.7-.4 0-.4.1-.6.3-.2.2-.4.6-.9.9-2.2 1.4-1.4 2.9-1 3.9.4.8 0 1.9-.6 2.6-.8 1-1.9 1.6-2.8 1.4-.9-.2-1.7-.1-2.1.3-.3.2-.4.5-.5.8-.2 1.1-.7 3.3-1.5 4.4-.7 1-10.6 10.8-11.1 11.2l-.8-.7c3.6-3.5 10.4-10.4 11-11.2.7-.9 1.2-2.9 1.4-4 .1-.6.4-1 .8-1.4.7-.5 1.6-.6 2.8-.4 1 .2 1.8-.8 2-1.1.5-.7.7-1.4.6-1.6-.5-1-1.6-3.2 1.2-5 .4-.3.6-.5.7-.7.3-.4.5-.7 1.3-.7 1.1 0 2.8.5 3.3 1 .2.2.4.6 1 1.7.8 1.4 2.3 4.1 2.9 4.5 1.2.7 4.5 5.3 5 6.9.5 1.6.5 4.1 0 5.5-.4 1 .1 2.1.8 2.4.1.1 3.1 1.5 4.9 3.6.7.8 1.7.6 3.3 0 .8-.3 1.7-.5 2.4-.5 1.8 0 6.6 1.7 12.3 7.6l-.5.6z"></path><path d="M48.5 62.6l-.7-.5c.1-.1 6.2-7.7 6.3-10.8.1-2.5 1.2-5.3 2-7.3.3-.6.5-1.2.6-1.6.4-1.1-.3-2-.7-2.5-.1-.2-.2-.3-.3-.4l-.1-.3c-.2-.4-.5-1-.9-2.1-.4-.9-1.8-2.1-2.3-2.4l.5-.7c.1.1 2 1.4 2.6 2.8.4 1 .7 1.6.9 2l.1.3s.1.2.2.3c.5.6 1.4 1.7.9 3.3-.1.4-.4 1-.6 1.6-.8 1.9-1.9 4.6-1.9 7-.2 3.4-6.3 11-6.6 11.3z"></path><path d="M65.6 67l-.9-.1c.3-2.3-1-4.2-2.3-6.2-.7-1-1.4-2.1-1.9-3.2-1.5-3.2-5.8-5.3-5.9-5.3l.4-.8c.2.1 4.7 2.2 6.3 5.8.5 1.1 1.2 2.1 1.8 3.1 1.5 2 2.8 4 2.5 6.7zM52.2 66.8c-.6-3.6-3.3-4.1-4.2-4-.9.1-2.2-.6-3.8-2.3-.6-.5-1.2-1.2-1.5-1.5-.1-.1-.4-.2-1.6-.1-.6.1-3 2.4-4.9 4.6l-.7-.6c1-1.1 4.2-4.8 5.5-4.9 1.2-.1 2-.1 2.4.4.2.3.8 1 1.4 1.5 2 2 2.9 2.1 3.1 2 1.1-.1 4.5.4 5.2 4.7l-.9.2z"></path><path d="M7 66.5h86v.9H7zM33.9 42.6c-2.8 0-5.1-2.2-5.1-5s2.3-5 5.1-5 5.1 2.2 5.1 5c.1 2.8-2.2 5-5.1 5zm0-9.1c-2.3 0-4.3 1.9-4.3 4.1s1.9 4.1 4.3 4.1 4.3-1.9 4.3-4.1-1.9-4.1-4.3-4.1z"></path></g></switch></g><!----></svg>